<svg width="8" height="8" viewBox="0 0 8 8" fill="none" xmlns="http://www.w3.org/2000/svg">
<path d="M3.61816 1.07324L4.59622 3.05458L6.78424 3.37225L5.20124 4.90993L5.57429 7.08796L3.61816 6.05947L1.66698 7.08796L2.04011 4.90993L0.457031 3.37225L2.64002 3.05458L3.61816 1.07324Z" fill="#E51520"/>
<path d="M5.62097 7.61765C5.54084 7.61765 5.46017 7.59847 5.38653 7.55964L3.66531 6.65468L1.94911 7.55964C1.77918 7.64937 1.57351 7.63374 1.41774 7.52182C1.26242 7.40889 1.18484 7.2173 1.21709 7.02826L1.54528 5.11244L0.152789 3.75924C0.0151867 3.62512 -0.03478 3.42494 0.0247005 3.24248C0.0837169 3.05993 0.241507 2.9269 0.43155 2.89866L2.35241 2.61936L3.21352 0.87594C3.38345 0.531588 3.94755 0.531588 4.11748 0.87594L4.9786 2.61936L6.90402 2.89866C7.09406 2.92635 7.25193 3.05947 7.31141 3.24248C7.37089 3.42502 7.321 3.62566 7.18332 3.75924L5.79083 5.11244L6.11901 7.02826C6.15127 7.2173 6.07361 7.40843 5.91837 7.52182C5.82966 7.58486 5.72531 7.61765 5.62097 7.61765ZM3.66484 5.58078C3.74552 5.58078 3.82619 5.59996 3.89929 5.63879L4.95145 6.19183L4.75081 5.02117C4.72258 4.85734 4.77749 4.69043 4.89653 4.57448L5.74504 3.74964L4.57036 3.57925C4.40599 3.55558 4.26429 3.45217 4.19073 3.3035L3.66492 2.23773L3.13911 3.3035C3.06548 3.45224 2.92385 3.55558 2.75995 3.57925L1.58976 3.74918L2.4388 4.57348C2.55777 4.68942 2.61276 4.8568 2.58453 5.0207L2.38389 6.18989L3.43056 5.63832C3.5035 5.59996 3.58417 5.58078 3.66484 5.58078Z" fill="#E51520"/>
</svg>
